PathFileType	4	(X/Y/Z)	D:\Share\Shared_Data\Ergonomics\Sit To Stand Pertubation\S0\Perturbed STS.trc
DataRate	CameraRate	NumFrames	NumMarkers	Units	OrigDataRate	OrigDataStartFrame	OrigNumFrames	
100	100	19	18	m	100	8778	221
Frame#	Time	R_Heel			R_ASIS			R_Pelvis			V_Sacral			L_Pelvis			L_ASIS			Clavical			R_Acromium			L_Acromium			Sternum			Torso			R_Thigh_Med			R_Thigh_Lat			R_Thigh			R_Shank_Med			R_Shank_Lat			R_Shank			R_Toe			
		X1	Y1	Z1	X2	Y2	Z2	X3	Y3	Z3	X4	Y4	Z4	X5	Y5	Z5	X6	Y6	Z6	X7	Y7	Z7	X8	Y8	Z8	X9	Y9	Z9	X10	Y10	Z10	X11	Y11	Z11	X12	Y12	Z12	X13	Y13	Z13	X14	Y14	Z14	X15	Y15	Z15	X16	Y16	Z16	X17	Y17	Z17	X18	Y18	Z18	

8778	44.12	0.16059656	0.041803394	0.11841442	0.13949963	0.81407263	0.13658902	0.025386892	0.86630048	0.1860079	-0.11088221	0.89453345	-0.03786425	0.026414951	0.84878198	-0.22183745	0.13675578	0.79309302	-0.17584468	0.40142365	1.0845858	-0.025625019	0.38865387	1.1943799	0.098643448	0.37911346	1.1983989	-0.16734822	0.36945474	0.99476849	-0.044528755	0.37456409	1.0529235	-0.14004034	0.33983997	0.48088373	0.030680298	0.3403342	0.50108511	0.16503586	0.3113049	0.65234052	0.085999847	0.26111395	0.097632759	0.068895248	0.20688701	0.086280319	0.16140067	0.28278705	0.30570825	0.1792037	0.38707727	0.049679474	0.10646527
8779	44.13	0.16057629	0.041736919	0.11849898	0.14164882	0.81732684	0.13698854	0.02799004	0.87030566	0.18670737	-0.1087071	0.89913385	-0.036805672	0.027800663	0.8529057	-0.22122153	0.13797357	0.79674023	-0.1755307	0.40222821	1.0906307	-0.025770222	0.38935941	1.2003567	0.098540039	0.37949945	1.2044413	-0.16736786	0.37024258	1.0008471	-0.044794415	0.37554999	1.0589524	-0.13990869	0.33917404	0.48123865	0.030703115	0.33990784	0.50129187	0.16500871	0.31212091	0.65286395	0.086318802	0.26091425	0.097694481	0.068882286	0.20682521	0.08625753	0.16145805	0.28246567	0.30582034	0.17926947	0.3869393	0.04979425	0.10628617
8780	44.14	0.16055254	0.041668903	0.11857707	0.14374083	0.82055634	0.13739807	0.03053573	0.87426666	0.18741524	-0.10654919	0.90370227	-0.035764519	0.029196295	0.85702563	-0.22061459	0.13919481	0.8004079	-0.17519919	0.40299789	1.096709	-0.025921041	0.38997137	1.2063306	0.098471252	0.37977481	1.2104836	-0.16742453	0.37108542	1.006944	-0.045096031	0.3764754	1.064979	-0.13983347	0.33845337	0.48159482	0.030762775	0.33941174	0.50150018	0.16499467	0.31287436	0.65337329	0.086698212	0.26071933	0.097761208	0.068874352	0.20676187	0.086232994	0.16151431	0.28210846	0.3059317	0.17935033	0.38680533	0.049911396	0.10611443
8781	44.15	0.1605217	0.041601532	0.11865097	0.14578474	0.82376038	0.13781453	0.033023972	0.8781731	0.18813211	-0.1044071	0.90823035	-0.034742859	0.030608482	0.8611424	-0.22001277	0.14041515	0.80408997	-0.17485014	0.40374377	1.1028157	-0.026070303	0.39049326	1.212296	0.098439079	0.37994653	1.2165215	-0.16751569	0.37201584	1.0130474	-0.045410721	0.37734412	1.0709969	-0.13981827	0.33768793	0.48194986	0.030857645	0.33885272	0.50170779	0.16500342	0.31359415	0.65388147	0.087139603	0.26053171	0.0978339	0.068873283	0.20669823	0.086207352	0.16157028	0.28172021	0.30604202	0.17944296	0.38667374	0.050032661	0.10595183
8782	44.16	0.16048299	0.041535717	0.11872298	0.14778679	0.82694177	0.13823541	0.035454666	0.88202026	0.18885654	-0.10228014	0.91270972	-0.033744606	0.032042416	0.86525549	-0.21941479	0.14163277	0.80777869	-0.17448317	0.40446384	1.1089441	-0.026213099	0.39092798	1.2182506	0.098443596	0.38002188	1.2225518	-0.16763805	0.37304623	1.0191472	-0.045709766	0.37815625	1.0770033	-0.13986194	0.33689899	0.48231061	0.030987165	0.33823862	0.50191849	0.16504277	0.31430841	0.65440009	0.087639023	0.26035223	0.097913269	0.068881111	0.20663425	0.086180954	0.16162729	0.28130472	0.30615094	0.17954411	0.38654291	0.050158657	0.10580005
8783	44.17	0.16043715	0.041471581	0.11879552	0.14975061	0.83010437	0.13866029	0.037828278	0.88580811	0.18958548	-0.10016777	0.91713147	-0.032775223	0.033502071	0.86936224	-0.21882339	0.14285031	0.81146527	-0.1740963	0.405146	1.1150879	-0.026347111	0.39127808	1.2241947	0.098482719	0.38000818	1.228572	-0.16778731	0.3741633	1.0252341	-0.045967464	0.37891064	1.0829969	-0.13995978	0.33611594	0.48269089	0.031151093	0.33757581	0.50214148	0.16511719	0.31503345	0.65493353	0.088188316	0.26018051	0.097999321	0.068899689	0.20656911	0.086153702	0.16168703	0.28086346	0.30625845	0.17965353	0.38641177	0.050288654	0.10566092
8784	44.18	0.16038547	0.041408787	0.11887122	0.15167917	0.8332522	0.13909006	0.040146378	0.88954083	0.19031453	-0.098069084	0.92148779	-0.031840805	0.034990116	0.87345795	-0.21824384	0.14407388	0.8151416	-0.17368672	0.40577463	1.1212396	-0.026472395	0.39154608	1.23013	0.098552284	0.37991299	1.2345804	-0.16795801	0.37532901	1.0313003	-0.04616914	0.37960666	1.0889789	-0.14010495	0.33536456	0.48310315	0.031347908	0.33686765	0.502388	0.16522935	0.31577084	0.65547675	0.088777374	0.26001456	0.098091141	0.06893042	0.20650146	0.086124969	0.16175122	0.28039627	0.30636545	0.17977461	0.38628027	0.050420525	0.10553633
8785	44.19	0.16032928	0.041346695	0.11895255	0.1535748	0.83639026	0.13952467	0.042411743	0.89322485	0.19103813	-0.095982918	0.92577155	-0.030947138	0.036507465	0.87753674	-0.2176815	0.145311	0.81880225	-0.17325166	0.4063371	1.1273925	-0.026589989	0.39173419	1.2360591	0.098646683	0.37974313	1.240575	-0.16814378	0.37649292	1.0373408	-0.0463139	0.38024536	1.0949496	-0.14028955	0.33465607	0.4835513	0.031573839	0.33611542	0.50266779	0.16538058	0.31651239	0.65601984	0.089396828	0.25985144	0.098186981	0.068973839	0.20643027	0.086093765	0.16182138	0.27990308	0.30647406	0.17991139	0.38614951	0.050550888	0.10542784
8786	44.2	0.16026956	0.041284443	0.11904113	0.15543779	0.83952362	0.13996239	0.04462833	0.8968681	0.19174898	-0.093908005	0.92997638	-0.03009903	0.038053558	0.88159094	-0.21714088	0.14656853	0.82244397	-0.17278903	0.4068277	1.1335383	-0.026700508	0.39184378	1.2419839	0.098759674	0.37950388	1.2465533	-0.16833791	0.37760822	1.0433538	-0.046411583	0.3808299	1.1009086	-0.14050505	0.3339823	0.48402884	0.031822842	0.33532104	0.50298178	0.16556789	0.31724603	0.65655157	0.090038895	0.25968771	0.098284691	0.06902964	0.20635471	0.086059006	0.16189838	0.27938522	0.30658609	0.1800648	0.38602148	0.050675678	0.10533615
8787	44.21	0.16020721	0.041221008	0.11913726	0.15726723	0.84265637	0.14040062	0.046801056	0.90047949	0.19243822	-0.091843124	0.93409766	-0.029300011	0.039627579	0.88561041	-0.21662686	0.14785143	0.82606482	-0.17229857	0.40724631	1.1396714	-0.026803932	0.39187457	1.2479043	0.098885109	0.37919843	1.2525125	-0.16853421	0.37864124	1.0493407	-0.046476421	0.38136615	1.1068538	-0.14074248	0.3333154	0.48451895	0.032087307	0.33448935	0.50331747	0.16578136	0.31796017	0.65706256	0.090696335	0.25952072	0.098382179	0.069096733	0.20627423	0.08601973	0.16198236	0.27884549	0.30670178	0.18023035	0.38589828	0.050790951	0.10526094
8788	44.22	0.16014293	0.041155422	0.11923997	0.15906226	0.8457923	0.14083702	0.04893539	0.90406775	0.19309631	-0.08978685	0.93813171	-0.028552477	0.0412295	0.88958221	-0.21614488	0.14916194	0.82966138	-0.17178326	0.4075961	1.1457864	-0.026899878	0.39182477	1.2538181	0.099018044	0.37882837	1.2584492	-0.16872795	0.37957349	1.055304	-0.046521095	0.38186237	1.1127827	-0.14099269	0.3326124	0.48499692	0.032359322	0.33362717	0.50365643	0.1660074	0.31864658	0.6575473	0.091360901	0.25934863	0.098477928	0.069173615	0.20618851	0.085975441	0.16207306	0.27828745	0.30681949	0.18039973	0.38578101	0.05089389	0.10520093
8789	44.23	0.16007727	0.041087158	0.11934743	0.16082242	0.84893304	0.14127142	0.051036564	0.90764001	0.19371451	-0.087737526	0.94207605	-0.027858444	0.042860332	0.89349292	-0.21569948	0.15050026	0.83322821	-0.1712505	0.40788211	1.1518811	-0.026987713	0.39169138	1.2597224	0.099155228	0.37839395	1.2643606	-0.16891666	0.38040042	1.0612457	-0.046553242	0.38232797	1.1186931	-0.14124699	0.33182568	0.485435	0.032632118	0.33274121	0.50398575	0.16623442	0.31930072	0.65800476	0.092023369	0.25917136	0.09857119	0.069258621	0.20609697	0.085926132	0.16217046	0.27771448	0.30693643	0.18056482	0.38566956	0.050983532	0.10515392
8790	44.24	0.16001082	0.041016357	0.11945731	0.16254854	0.85207727	0.14170621	0.053108585	0.91120099	0.1942861	-0.085693718	0.94592889	-0.027220501	0.044521599	0.89733124	-0.2152928	0.15186659	0.83676056	-0.17071059	0.40811029	1.1579552	-0.027066721	0.39147119	1.2656145	0.099294891	0.37789487	1.2702444	-0.16910028	0.38113	1.0671681	-0.046574833	0.38277158	1.1245835	-0.14149838	0.33092218	0.48581326	0.032901489	0.33183707	0.50430096	0.16645544	0.31992035	0.6584375	0.092674393	0.25899002	0.098662003	0.069350281	0.20599863	0.085872246	0.16227487	0.27712997	0.30705008	0.18072072	0.38556345	0.051060852	0.10511695
8791	44.25	0.1599442	0.040944092	0.11956714	0.16424431	0.85522266	0.14214409	0.055153286	0.91475189	0.19480682	-0.083654732	0.94968878	-0.026641953	0.046214752	0.90108813	-0.21492473	0.15325893	0.84025415	-0.17017537	0.40828644	1.16401	-0.027136328	0.39116162	1.2714923	0.099436447	0.37733124	1.2760996	-0.16928065	0.38177975	1.0730725	-0.046583843	0.38319733	1.1304529	-0.14174255	0.32990405	0.48613159	0.033166763	0.33091867	0.50460315	0.16666779	0.32050516	0.65884967	0.093306313	0.25880667	0.098751053	0.069447372	0.20589214	0.085814575	0.16238675	0.27653683	0.30715894	0.18086601	0.38546213	0.05112862	0.10508702
8792	44.26	0.15987823	0.040872105	0.11967455	0.16591743	0.85836896	0.14258604	0.057169605	0.91829041	0.19527541	-0.081620461	0.95335486	-0.026125946	0.047941189	0.90475848	-0.21459364	0.15466611	0.84370087	-0.16965776	0.40841641	1.1700492	-0.027196093	0.39076065	1.2773555	0.099579712	0.3767041	1.2819264	-0.16946054	0.38237152	1.0789603	-0.046576973	0.38360043	1.136301	-0.14197809	0.32880991	0.48641141	0.033430546	0.32998831	0.50489627	0.1668718	0.32105603	0.65924524	0.093914879	0.25862381	0.098839272	0.069548973	0.20577646	0.085754051	0.16250574	0.27593665	0.30726303	0.18100282	0.38536517	0.051190765	0.10506216
8793	44.27	0.15981361	0.040802021	0.11977724	0.16757883	0.86151868	0.14303061	0.05915443	0.92181018	0.19569463	-0.079590805	0.95692712	-0.025674503	0.049702953	0.90834009	-0.21429724	0.15607755	0.84709161	-0.16916994	0.40850592	1.1760771	-0.027245684	0.39026645	1.283205	0.099724304	0.37601575	1.2877267	-0.16964294	0.38292624	1.084833	-0.046551922	0.38396585	1.1421281	-0.14220589	0.32769281	0.4866832	0.033696537	0.32904614	0.50518454	0.16706987	0.32157474	0.65962799	0.094500298	0.25844376	0.098927864	0.06965435	0.20565123	0.085691795	0.16263025	0.27532907	0.3073642	0.18113702	0.38527118	0.051251381	0.10504201
8794	44.28	0.15975031	0.040734562	0.11987351	0.16924136	0.86467651	0.14347404	0.061105473	0.92530164	0.19607106	-0.077564972	0.96040674	-0.025288002	0.05150288	0.91183301	-0.21403268	0.15751033	0.85042877	-0.16871985	0.40855963	1.182099	-0.027284929	0.38967725	1.2890444	0.0998694	0.37526938	1.2935018	-0.16983022	0.3834592	1.0906935	-0.046508354	0.38427402	1.1479347	-0.1424279	0.32659842	0.48697339	0.033967182	0.32808997	0.50547116	0.16726543	0.32206296	0.65999939	0.095067169	0.25826831	0.099018326	0.069763313	0.2055163	0.085628868	0.16275768	0.27471198	0.3074657	0.18127629	0.38517825	0.05131406	0.10502795
8795	44.29	0.15968774	0.040669468	0.11996257	0.17091933	0.86784894	0.1439104	0.063023842	0.9287533	0.19641287	-0.075541	0.96379608	-0.024964928	0.05334407	0.91523932	-0.21379704	0.15901065	0.85372931	-0.16830957	0.40858017	1.1881202	-0.027313761	0.38899246	1.2948792	0.10001456	0.37446774	1.2992551	-0.17002374	0.38397766	1.0965461	-0.046448044	0.3845097	1.1537228	-0.14264595	0.32555664	0.48729898	0.034242996	0.32711533	0.50575793	0.16746211	0.32252267	0.66035907	0.095623718	0.25809833	0.099112305	0.069876038	0.20537155	0.085565933	0.16288538	0.27408179	0.30757083	0.18142575	0.3850838	0.051381699	0.10502234
8796	44.3	0.15962498	0.040605785	0.12004459	0.17262698	0.87104303	0.14433269	0.064913925	0.93215533	0.1967271	-0.073515152	0.96709857	-0.024701727	0.055229847	0.91856274	-0.21358748	0.16062093	0.85701044	-0.16793584	0.40856668	1.1941466	-0.027332142	0.38821201	1.3007158	0.1001605	0.37361295	1.3049901	-0.17022383	0.38448123	1.1023965	-0.046374672	0.38466663	1.1594963	-0.14286137	0.32457877	0.48766565	0.034523102	0.32611682	0.50604474	0.16766263	0.32295615	0.66070453	0.096180016	0.25793359	0.099211006	0.069992683	0.20521696	0.085503189	0.16301123	0.27343375	0.30768167	0.18158611	0.38498508	0.051456799	0.10502762
